<svg width="1512" height="1126" viewBox="0 0 1512 1126" fill="none" xmlns="http://www.w3.org/2000/svg">
<g filter="url(#filter0_f_46_10)">
<path d="M167.446 769.398C78.4506 769.398 4.759 677.656 -15.2081 594.715C-83.2278 312.172 310.384 157.698 531.368 146.918C567.835 145.14 622.328 139.211 653.368 163.901C686.306 190.102 701.616 239.47 701.198 280.01C700.24 372.864 654.618 460.948 613.857 541.687C540.099 687.783 455.794 827.862 400.356 982.552C347.39 1130.34 317.343 1290.54 331.037 1448.03C337.708 1524.74 392.864 1582.51 468.288 1596.37C527.418 1607.23 588.071 1601.78 621.482 1546.46C635.659 1522.98 641.172 1497.71 658.567 1476.1C685.834 1442.22 707.878 1405.86 731.351 1369.35C763.902 1318.71 768.12 1266.87 779.874 1209.57C799.227 1115.22 825.047 1021.24 868.948 935.069C894.671 884.576 935.282 832.046 989.562 810.989C1055.64 785.354 1163.77 782.708 1230.44 807.87C1395.82 870.276 1421.42 1075.74 1421.42 1226.21C1421.42 1316.73 1416.36 1464.01 1324.72 1514.92C1264.79 1548.21 1164.5 1517.04 1109.48 1493.08C1060.66 1471.82 993.762 1442.79 961.142 1398.12C937.04 1365.11 915.408 1322.22 900.488 1284.09C873.657 1215.52 814.74 1167.05 777.448 1104.9C758.581 1073.45 744.135 1039.5 725.459 1007.85C705.065 973.296 664.552 949.672 629.107 931.949C570.958 902.875 515.531 900.187 453.038 889.319C409.355 881.722 369.24 882.523 326.532 866.097C300.012 855.897 274.191 840.291 251.668 822.773C236.466 810.95 153.672 763.762 163.98 753.455C173.257 744.178 175.571 727.162 183.043 716.369C192.749 702.349 207.509 690.199 215.969 675.818C227.28 656.589 259.215 642.22 276.622 628.681C286.112 621.301 294.194 605 308.162 607.539C324.976 610.596 348.131 622.747 362.231 632.147C398.82 656.54 391.679 644.212 385.452 609.965C381.484 588.138 378.206 563.19 370.202 542.38C359.936 515.688 394.606 544.443 404.515 549.658C424.291 560.067 415.143 541.489 412.14 527.477C406.219 499.848 400.246 508.852 420.112 513.266C443.601 518.486 477.207 490.165 504.333 488.658C532.202 487.11 543.4 461.529 563.947 448.454C666.178 383.398 815.801 566.306 894.596 450.186C922.424 409.178 945.751 339.986 993.721 318.482C1044.05 295.922 1082.92 343.738 1110.87 377.749C1151.92 427.698 1190.88 498.835 1245.35 535.795C1257.72 544.194 1252.75 514.011 1252.63 510.84C1250.51 458.054 1245.61 405.716 1247.08 352.794C1251.21 204.097 1404.03 235.24 1512.92 232.873C1544.6 232.185 1571.26 214.157 1602.34 214.157" stroke="black" stroke-opacity="0.85" stroke-width="90" stroke-linecap="round"/>
</g>
<defs>
<filter id="filter0_f_46_10" x="-168.105" y="0.0110474" width="1915.44" height="1745.84" filterUnits="userSpaceOnUse" color-interpolation-filters="sRGB">
<feFlood flood-opacity="0" result="BackgroundImageFix"/>
<feBlend mode="normal" in="SourceGraphic" in2="BackgroundImageFix" result="shape"/>
<feGaussianBlur stdDeviation="50" result="effect1_foregroundBlur_46_10"/>
</filter>
</defs>
</svg>
