<svg width="96" height="24" viewBox="0 0 96 24" fill="none" xmlns="http://www.w3.org/2000/svg">
<circle cx="26" cy="12" r="11.625" stroke="black" stroke-width="0.75"/>
<path d="M43.625 12C43.625 15.1493 41.7102 18.0464 38.5199 20.1733C35.3322 22.2984 30.9069 23.625 26 23.625C21.0931 23.625 16.6678 22.2984 13.4801 20.1733C10.2898 18.0464 8.375 15.1493 8.375 12C8.375 8.85069 10.2898 5.95361 13.4801 3.82674C16.6678 1.70161 21.0931 0.375 26 0.375C30.9069 0.375 35.3322 1.70161 38.5199 3.82674C41.7102 5.95361 43.625 8.85069 43.625 12Z" stroke="black" stroke-width="0.75"/>
<path d="M51.625 12C51.625 15.0793 48.905 17.986 44.2276 20.1448C39.5821 22.2889 33.1381 23.625 26 23.625C18.8619 23.625 12.4179 22.2889 7.77237 20.1448C3.09501 17.986 0.375 15.0793 0.375 12C0.375 8.92073 3.09501 6.01398 7.77237 3.8552C12.4179 1.71112 18.8619 0.375 26 0.375C33.1381 0.375 39.5821 1.71112 44.2276 3.8552C48.905 6.01398 51.625 8.92073 51.625 12Z" stroke="black" stroke-width="0.75"/>
<path d="M0.169189 12.5H14.3537" stroke="black" stroke-width="0.75"/>
<path d="M37.5 12.5H51.6791" stroke="black" stroke-width="0.75"/>
<path d="M25.542 13.075C25.524 13.483 25.44 13.873 25.29 14.245C25.146 14.611 24.933 14.938 24.651 15.226C24.375 15.514 24.027 15.739 23.607 15.901C23.193 16.063 22.71 16.144 22.158 16.144C21.63 16.144 21.135 16.069 20.673 15.919C20.211 15.763 19.803 15.535 19.449 15.235C19.101 14.935 18.828 14.566 18.63 14.128C18.438 13.69 18.342 13.189 18.342 12.625C18.342 12.061 18.441 11.56 18.639 11.122C18.837 10.684 19.113 10.315 19.467 10.015C19.827 9.715 20.241 9.49 20.709 9.34C21.183 9.184 21.699 9.106 22.257 9.106C23.001 9.106 23.643 9.22 24.183 9.448C24.723 9.676 25.158 9.988 25.488 10.384C25.818 10.78 26.031 11.239 26.127 11.761H24.246C24.186 11.533 24.063 11.338 23.877 11.176C23.697 11.008 23.469 10.882 23.193 10.798C22.923 10.708 22.614 10.663 22.266 10.663C21.846 10.663 21.483 10.738 21.177 10.888C20.871 11.032 20.634 11.251 20.466 11.545C20.298 11.833 20.214 12.193 20.214 12.625C20.214 13.063 20.304 13.432 20.484 13.732C20.664 14.032 20.919 14.257 21.249 14.407C21.585 14.557 21.978 14.632 22.428 14.632C22.866 14.632 23.253 14.572 23.589 14.452C23.925 14.326 24.192 14.143 24.39 13.903C24.594 13.663 24.711 13.375 24.741 13.039L25.542 13.075ZM22.608 13.822V12.508H26.19V16H24.867L24.606 13.327L24.957 13.822H22.608ZM28.5918 12.202H31.0488C31.3488 12.202 31.5828 12.133 31.7508 11.995C31.9188 11.857 32.0028 11.665 32.0028 11.419C32.0028 11.167 31.9188 10.975 31.7508 10.843C31.5828 10.705 31.3488 10.636 31.0488 10.636H28.3308L29.1678 9.745V16H27.3048V9.25H31.3098C31.8258 9.25 32.2758 9.343 32.6598 9.529C33.0438 9.709 33.3438 9.961 33.5598 10.285C33.7758 10.603 33.8838 10.981 33.8838 11.419C33.8838 11.845 33.7758 12.22 33.5598 12.544C33.3438 12.868 33.0438 13.12 32.6598 13.3C32.2758 13.48 31.8258 13.57 31.3098 13.57H28.5918V12.202ZM29.5998 12.841H31.6968L34.1178 16H31.9578L29.5998 12.841Z" fill="black"/>
<circle cx="70" cy="12" r="11.625" stroke="black" stroke-width="0.75"/>
<path d="M87.625 12C87.625 15.1493 85.7102 18.0464 82.5199 20.1733C79.3322 22.2984 74.9069 23.625 70 23.625C65.0931 23.625 60.6678 22.2984 57.4801 20.1733C54.2898 18.0464 52.375 15.1493 52.375 12C52.375 8.85069 54.2898 5.95361 57.4801 3.82674C60.6678 1.70161 65.0931 0.375 70 0.375C74.9069 0.375 79.3322 1.70161 82.5199 3.82674C85.7102 5.95361 87.625 8.85069 87.625 12Z" stroke="black" stroke-width="0.75"/>
<path d="M95.625 12C95.625 15.0793 92.905 17.986 88.2276 20.1448C83.5821 22.2889 77.1381 23.625 70 23.625C62.8619 23.625 56.4179 22.2889 51.7724 20.1448C47.095 17.986 44.375 15.0793 44.375 12C44.375 8.92073 47.095 6.01398 51.7724 3.8552C56.4179 1.71112 62.8619 0.375 70 0.375C77.1381 0.375 83.5821 1.71112 88.2276 3.8552C92.905 6.01398 95.625 8.92073 95.625 12Z" stroke="black" stroke-width="0.75"/>
<path d="M44.1692 12.5H58.3537" stroke="black" stroke-width="0.75"/>
<path d="M81.5 12.5H95.6791" stroke="black" stroke-width="0.75"/>
<path d="M67.202 12.697L67.355 12.346C67.877 12.358 68.306 12.439 68.642 12.589C68.984 12.733 69.239 12.937 69.407 13.201C69.575 13.459 69.659 13.759 69.659 14.101C69.659 14.467 69.575 14.794 69.407 15.082C69.239 15.364 68.987 15.589 68.651 15.757C68.321 15.919 67.907 16 67.409 16H62.423L62.945 12.535L62.423 9.25H67.229C67.853 9.25 68.339 9.397 68.687 9.691C69.035 9.979 69.209 10.381 69.209 10.897C69.209 11.179 69.143 11.449 69.011 11.707C68.879 11.965 68.666 12.184 68.372 12.364C68.084 12.538 67.694 12.649 67.202 12.697ZM64.268 15.568L63.548 14.695H66.905C67.175 14.695 67.385 14.629 67.535 14.497C67.685 14.365 67.76 14.182 67.76 13.948C67.76 13.714 67.679 13.528 67.517 13.39C67.355 13.246 67.115 13.174 66.797 13.174H64.025V11.896H66.545C66.761 11.896 66.941 11.833 67.085 11.707C67.235 11.575 67.31 11.398 67.31 11.176C67.31 10.996 67.247 10.849 67.121 10.735C66.995 10.615 66.815 10.555 66.581 10.555H63.557L64.268 9.682L64.727 12.535L64.268 15.568ZM74.2569 16.144C73.4589 16.144 72.7569 15.997 72.1509 15.703C71.5509 15.409 71.0829 14.998 70.7469 14.47C70.4169 13.942 70.2519 13.327 70.2519 12.625C70.2519 11.923 70.4169 11.308 70.7469 10.78C71.0829 10.252 71.5509 9.841 72.1509 9.547C72.7569 9.253 73.4589 9.106 74.2569 9.106C75.0609 9.106 75.7629 9.253 76.3629 9.547C76.9629 9.841 77.4309 10.252 77.7669 10.78C78.1029 11.308 78.2709 11.923 78.2709 12.625C78.2709 13.327 78.1029 13.942 77.7669 14.47C77.4309 14.998 76.9629 15.409 76.3629 15.703C75.7629 15.997 75.0609 16.144 74.2569 16.144ZM74.2569 14.479C74.6949 14.479 75.0729 14.404 75.3909 14.254C75.7089 14.104 75.9519 13.891 76.1199 13.615C76.2939 13.339 76.3809 13.009 76.3809 12.625C76.3809 12.241 76.2939 11.911 76.1199 11.635C75.9519 11.359 75.7089 11.146 75.3909 10.996C75.0729 10.846 74.6949 10.771 74.2569 10.771C73.8249 10.771 73.4499 10.846 73.1319 10.996C72.8139 11.146 72.5679 11.359 72.3939 11.635C72.2199 11.911 72.1329 12.241 72.1329 12.625C72.1329 13.009 72.2199 13.339 72.3939 13.615C72.5679 13.891 72.8139 14.104 73.1319 14.254C73.4499 14.404 73.8249 14.479 74.2569 14.479Z" fill="black"/>
</svg>
